<svg width="85" height="89" viewBox="0 0 85 89" fill="none" xmlns="http://www.w3.org/2000/svg">
<path d="M52.1215 23.3284C51.9455 23.3378 51.776 23.398 51.6334 23.5017C51.4908 23.6054 51.3813 23.7481 51.3181 23.9127C51.2633 24.0222 51.172 24.1865 51.4642 24.2231C51.6742 23.9309 51.8933 23.6296 52.1215 23.3101M57.5355 41.387C58.2479 38.1508 57.7578 34.7659 56.1569 31.8647C54.4405 28.861 52.3132 26.2407 49.0448 24.7252C48.2348 24.2381 47.3144 23.9648 46.3698 23.9309C44.0417 24.0496 42.444 25.346 41.1019 27.0533C40.3593 27.8231 39.8525 28.7893 39.6412 29.8379C39.3908 31.9893 39.4988 34.1673 39.9607 36.2834C41.1269 40.7622 42.8282 45.0843 45.0277 49.1564C45.3564 49.7772 45.7124 50.535 46.6072 50.5167C47.5066 50.5512 48.407 50.4838 49.2913 50.3159C50.5476 50.094 51.7434 49.6114 52.8017 48.899C53.86 48.1867 54.7572 47.2605 55.4356 46.1801C56.4148 44.7176 57.1315 43.0956 57.5537 41.387M68.8928 81.3387C67.59 80.8366 66.3318 80.2258 65.1314 79.5127C63.3055 78.3715 61.6256 76.9564 59.7814 75.8609C56.7777 74.0988 54.3035 71.6977 51.665 69.5613C49.5756 67.7458 47.6027 65.8004 45.7581 63.7366C44.5238 62.4834 43.3912 61.134 42.371 59.7012C42.1703 59.4129 41.8929 59.1865 41.5702 59.0477C41.2475 58.909 40.8923 58.8633 40.545 58.9161C38.8286 59.2539 37.3222 58.4961 35.7336 58.2222C35.0763 58.1035 34.5011 57.5192 33.7525 57.93C32.9399 57.1358 31.7622 57.2727 30.8492 56.8162C29.4364 56.2726 28.1107 55.5251 26.9143 54.5977C26.7555 54.4254 26.5365 54.3208 26.3026 54.3055C25.9483 54.29 25.6046 54.1797 25.3075 53.986C24.0476 53.073 22.5686 52.3974 21.3269 51.4388C18.8522 49.6089 16.5729 47.5285 14.5253 45.2306C14.5253 45.2306 14.434 45.1667 14.4248 45.121C14.1509 43.8794 12.9641 43.4046 12.2611 42.5282C11.5581 41.6517 10.7547 40.6383 10.0608 39.6523C9.36697 38.6663 8.78266 37.6073 8.15271 36.5756C5.03094 31.5691 2.80358 26.0578 1.57017 20.2881C0.744259 16.5997 0.479561 12.8077 0.785015 9.04032C0.834201 7.68202 1.16368 6.34856 1.75277 5.12366C2.18186 4.32024 2.40098 3.37075 2.87572 2.5582C3.37659 1.54686 4.20299 0.733326 5.22207 0.248381C6.54588 -0.308533 7.32191 0.0566561 7.5958 1.49002C7.75103 2.33308 7.82441 3.18917 7.81491 4.04635C7.80388 7.62992 8.10939 11.2075 8.72789 14.7373C9.45241 18.3928 10.6205 21.9462 12.2063 25.3186C13.81 28.9049 15.7641 32.3238 18.0402 35.5257C20.8096 39.4976 24.349 42.8724 28.4481 45.4497C30.1554 46.5179 32.1 47.1752 33.6977 48.4351C33.9442 48.636 34.4737 48.4351 34.8846 48.4808C35.1676 48.0425 34.8115 47.7321 34.6472 47.4035C33.9811 46.1568 33.4925 44.8231 33.1956 43.4412C33.0039 42.4186 32.4926 41.46 32.2278 40.4375C31.5343 37.597 31.1607 34.6878 31.114 31.7642C31.114 30.7965 31.5066 29.8744 31.3149 28.9249C31.2144 28.4319 32.3191 28.3954 31.6709 27.7471C31.2692 27.3454 31.6709 26.8889 31.7713 26.4781C31.8718 26.0673 32.1639 25.5651 32.2735 25.0447C32.6692 23.7918 33.387 22.6648 34.3551 21.7763C35.5602 20.4068 36.6831 18.7726 38.3904 18.1244C41.1293 17.0654 43.8682 15.9059 46.9724 16.5267C51.0533 17.3301 54.2214 19.5121 57.1611 22.3058C58.9662 23.9057 60.5395 25.7494 61.8356 27.7837C64.9137 32.6722 65.9312 38.5806 64.6658 44.2172C63.9994 46.8672 62.8847 49.3837 61.3699 51.6579C60.6143 53.08 59.516 54.2912 58.1745 55.182C57.2616 55.7024 56.6681 56.5971 55.6912 57.0079C54.7144 57.4188 53.8653 57.8114 52.9523 58.2313C52.595 58.3378 52.2915 58.576 52.1033 58.8978C57.8563 65.5744 64.7808 71.1436 72.5356 75.3313C72.3803 74.4959 72.0264 73.71 71.504 73.0398C69.9028 70.4801 68.7107 67.6862 67.9707 64.7591C67.8524 64.1909 67.8737 63.6026 68.0327 63.0444C68.1917 62.4863 68.4837 61.975 68.8837 61.5546C69.337 61.1579 69.9132 60.9296 70.5151 60.908C71.1171 60.8863 71.7081 61.0728 72.1887 61.4359C75.0709 64.2806 77.418 67.6205 79.1182 71.296C79.7824 72.734 80.5387 74.1276 81.3823 75.4683C82.3618 77.0388 83.246 78.6668 84.03 80.3436C84.4141 81.0471 84.6062 81.8393 84.587 82.6407C84.5677 83.442 84.3378 84.2241 83.9204 84.9084C83.4183 85.8214 82.7061 86.5792 82.2953 87.5287C82.2218 87.7117 82.096 87.8691 81.9337 87.9811C81.7713 88.0931 81.5796 88.1549 81.3823 88.1586C80.1729 88.3414 78.9441 88.3568 77.7304 88.2043C77.1934 88.1042 76.6424 88.1042 76.1053 88.2043C74.8597 88.3429 73.6059 88.3947 72.353 88.3595C70.5271 88.3595 68.7011 88.2773 66.8752 88.3595C65.8892 88.3595 64.9945 88.0399 64.0267 88.0034C62.8307 88.0034 61.6438 87.7113 60.4478 87.556C59.8139 87.4235 59.2001 87.2086 58.6219 86.917C58.2461 86.7753 57.9199 86.5271 57.6831 86.2028C57.4463 85.8784 57.3093 85.4921 57.289 85.091C57.2774 84.6669 57.393 84.2491 57.6207 83.8912C57.8485 83.5333 58.1781 83.2516 58.5671 83.0825C59.5713 82.6121 60.6436 82.304 61.7443 82.1695C63.8918 81.8966 66.0527 81.7411 68.2172 81.7039C68.409 81.7039 68.6007 81.6491 68.7924 81.6217L68.8746 81.3387" fill="#CADB4A"/>
</svg>
