<svg width="1079" height="837" viewBox="0 0 1079 837" fill="none" xmlns="http://www.w3.org/2000/svg">
<path d="M802.301 208.476C793.083 244.461 783.943 280.473 774.62 316.431C741.557 443.857 697.19 567.038 636.427 684.055C630.817 694.851 625.157 705.724 618.335 715.726C607.387 731.807 592.934 737.963 578.459 733.556C561.242 728.317 552.612 715.211 552.357 698.391C551.908 670.617 553.158 642.796 554.448 615.041C559.21 512.604 564.637 410.201 568.985 307.752C569.965 284.629 567.626 261.359 562.791 237.469C560.081 245.285 557.362 253.107 554.633 260.933C523.154 352.037 492.109 443.292 459.886 534.148C452.085 556.15 441.183 577.176 430.37 597.966C415.91 625.767 398.186 637.255 378.491 633.773C357.446 630.05 343.114 612.901 341.371 580.434C339.319 542.348 340.868 504.014 341.898 465.831C342.92 428.654 345.266 391.539 342.513 352.846C339.064 359.137 335.223 365.255 332.25 371.763C313.547 412.875 295.599 454.343 276.194 495.13C269.179 509.899 260.407 524.444 249.756 536.78C225.516 564.863 188.04 560.332 173.766 526.038C164.594 504.045 161.265 479.273 157.819 455.372C153.483 425.315 151.962 394.859 148.683 364.632C147.773 356.243 144.9 348.032 141.799 334.907C131.845 345.01 123.727 351.333 118.04 359.381C97.5025 388.445 77.4261 417.839 57.8105 447.564C43.873 468.563 31.9759 490.978 17.0861 511.234C-11.6986 550.353 -52.8527 551.181 -83.3486 513.231C-94.1036 499.847 -102.389 484.149 -110.008 468.644C-132.215 423.415 -152.277 377.13 -183.772 337.012C-190.311 328.697 -199.645 318.254 -192.328 306.444C-183.861 292.797 -169.226 292.515 -154.948 294.759C-136.915 297.622 -121.979 307.342 -110.949 320.9C-91.8427 344.441 -73.7821 368.942 -56.7939 394.062C-44.68 411.97 -35.1135 431.595 -22.4846 453.766C-15.632 444.987 -9.61958 438.239 -4.67567 430.79C15.5143 400.373 34.5814 369.171 55.6463 339.384C69.1191 320.328 83.7263 301.464 100.742 285.6C139.952 249.116 182.818 258.128 206.895 306.212C222.799 337.972 226.573 372.599 230.124 407.23C230.836 414.071 231.138 420.954 232.098 434.315C238.474 422.974 242.66 416.984 245.424 410.391C262.222 370.335 278.273 329.943 295.498 290.054C303.729 270.962 313.009 252.161 323.59 234.269C334.867 215.213 351.279 202.374 375.278 206.951C397.977 211.285 408.004 228.709 413.261 248.907C416.746 262.272 419.537 276.225 419.8 289.965C420.54 329.045 419.855 368.157 419.68 407.237C419.611 421.078 419.417 434.919 419.216 455.399C424.636 443.234 428.256 436.826 430.42 429.978C458.767 339.649 487.006 249.284 515.136 158.882C520.069 143.157 524.892 127.363 530.522 111.874C533.468 103.783 537.204 95.6764 542.136 88.6768C562.52 59.7649 599.473 61.9782 612.493 94.9103C621.928 118.777 626.578 145.073 629.865 170.75C644.03 281.576 642.335 392.739 634.386 503.925C633.661 512.895 634.369 521.923 636.485 530.67C640.174 522.262 644.131 513.974 647.507 505.457C687.054 405.837 713.71 302.389 739.347 198.586C751 151.38 764.198 104.541 777.152 57.6406C780.129 46.8258 784.314 36.185 789.123 26.0202C796.684 9.98946 808.747 -1.15429 827.64 0.0955104C846.471 1.36853 857.672 13.4409 862.263 30.7873C866.239 45.8391 869.67 61.2856 870.901 76.7591C874.385 120.932 878.311 165.174 879.085 209.443C880.969 318.064 881.848 426.7 881.722 535.352C881.722 571.797 877.68 608.231 875.57 644.677C875.279 649.707 875.442 654.795 877.835 660.502C949.396 513.66 996.303 358.418 1038.27 202.811C1030.82 197.085 1022.27 193.687 1020.7 188.278C1019.47 184.022 1025.76 175.989 1030.62 171.876C1040.23 163.75 1049.71 151.14 1064.43 157.25C1080.34 163.851 1080.04 180.001 1078.03 193.432C1069.44 250.938 1062.28 308.874 1049.51 365.51C1022.29 486.254 980.468 602.35 927.498 714.174C911.943 747.025 892.442 778.108 873.297 809.117C862.457 826.653 847.536 840.702 823.881 834.554C804.655 829.543 794.357 813.477 795.534 784.546C797.594 734.206 801.399 683.943 805.058 633.641C815.182 494.731 814.079 355.709 807.733 216.667C807.629 214.118 806.881 211.591 806.425 209.064L802.301 208.476Z" fill="#CBDC4B" fill-opacity="0.5"/>
</svg>
