<svg width="390" height="360" viewBox="0 0 390 360" fill="none" xmlns="http://www.w3.org/2000/svg">
<path d="M350.095 89.6981C346.129 105.181 342.196 120.675 338.185 136.146C323.96 190.972 304.87 243.972 278.726 294.319C276.313 298.964 273.878 303.642 270.942 307.945C266.232 314.864 260.014 317.513 253.785 315.617C246.378 313.363 242.665 307.724 242.555 300.487C242.362 288.537 242.9 276.567 243.454 264.625C245.503 220.551 247.839 176.492 249.709 132.412C250.131 122.463 249.125 112.451 247.044 102.173C245.878 105.535 244.708 108.901 243.534 112.268C229.99 151.466 216.633 190.729 202.769 229.821C199.412 239.287 194.722 248.333 190.069 257.278C183.848 269.24 176.222 274.183 167.748 272.685C158.693 271.083 152.527 263.705 151.777 249.735C150.894 233.348 151.561 216.855 152.004 200.427C152.443 184.431 153.453 168.462 152.268 151.814C150.784 154.521 149.132 157.153 147.853 159.953C139.805 177.642 132.083 195.484 123.734 213.033C120.716 219.387 116.941 225.645 112.359 230.953C101.93 243.036 85.8055 241.086 79.6639 226.331C75.7177 216.868 74.2852 206.21 72.8027 195.927C70.937 182.994 70.2824 169.891 68.8715 156.885C68.4801 153.276 67.2441 149.743 65.9098 144.096C61.6272 148.443 58.1342 151.163 55.6872 154.626C46.851 167.131 38.213 179.778 29.7733 192.567C23.7766 201.602 18.6578 211.246 12.2513 219.962C-0.13343 236.793 -17.8403 237.149 -30.9613 220.821C-35.5887 215.062 -39.1534 208.308 -42.4316 201.637C-51.9863 182.177 -60.6181 162.262 -74.1689 145.002C-76.9824 141.424 -80.9985 136.931 -77.8502 131.85C-74.2072 125.978 -67.9107 125.856 -61.7675 126.822C-54.0085 128.054 -47.582 132.236 -42.8364 138.069C-34.6159 148.198 -26.8452 158.74 -19.536 169.548C-14.3239 177.252 -10.2078 185.696 -4.77419 195.236C-1.82583 191.458 0.761063 188.555 2.88821 185.35C11.5751 172.263 19.7788 158.838 28.8421 146.022C34.6389 137.823 40.9237 129.707 48.2447 122.881C65.1153 107.184 83.5583 111.061 93.9176 131.75C100.76 145.414 102.385 160.313 103.912 175.213C104.219 178.156 104.348 181.118 104.762 186.867C107.505 181.987 109.306 179.41 110.495 176.573C117.723 159.339 124.629 141.96 132.04 124.797C135.581 116.583 139.574 108.494 144.126 100.796C148.979 92.5965 156.04 87.0727 166.366 89.0422C176.132 90.9067 180.446 98.4034 182.708 107.094C184.207 112.844 185.408 118.847 185.522 124.759C185.84 141.574 185.545 158.402 185.47 175.216C185.44 181.171 185.357 187.126 185.27 195.938C187.602 190.704 189.16 187.947 190.091 185C202.287 146.136 214.437 107.256 226.54 68.3601C228.663 61.5943 230.738 54.7985 233.16 48.1343C234.428 44.6532 236.035 41.1654 238.157 38.1537C246.927 25.7142 262.827 26.6665 268.429 40.8357C272.488 51.1043 274.489 62.4184 275.903 73.4661C281.998 121.15 281.268 168.978 277.849 216.817C277.536 220.676 277.841 224.56 278.751 228.324C280.339 224.706 282.041 221.14 283.494 217.476C300.509 174.614 311.978 130.105 323.008 85.4428C328.022 65.1321 333.701 44.9795 339.274 24.8002C340.555 20.1471 342.356 15.5688 344.425 11.1954C347.678 4.29803 352.869 -0.496642 360.997 0.0410939C369.1 0.588818 373.919 5.78304 375.894 13.2464C377.605 19.7225 379.081 26.3685 379.61 33.0261C381.11 52.0316 382.799 71.0671 383.132 90.1143C383.942 136.849 384.32 183.59 384.266 230.338C384.266 246.019 382.527 261.695 381.619 277.376C381.494 279.54 381.564 281.73 382.594 284.185C413.383 221.005 433.565 154.211 451.622 87.2608C448.415 84.7969 444.737 83.3352 444.063 81.0077C443.533 79.1764 446.242 75.7203 448.329 73.9506C452.466 70.4545 456.544 65.0288 462.876 67.6576C469.722 70.4978 469.595 77.4467 468.729 83.2253C465.031 107.968 461.955 132.895 456.459 157.263C444.746 209.214 426.752 259.165 403.962 307.278C397.269 321.412 388.879 334.786 380.641 348.127C375.977 355.672 369.558 361.717 359.38 359.072C351.108 356.916 346.677 350.004 347.183 337.556C348.07 315.897 349.707 294.271 351.281 272.628C355.637 212.861 355.162 153.046 352.432 93.2225C352.387 92.1254 352.066 91.0383 351.869 89.9511L350.095 89.6981Z" fill="white" fill-opacity="0.3"/>
</svg>
