<svg width="113" height="131" viewBox="0 0 113 131" fill="none" xmlns="http://www.w3.org/2000/svg">
<path d="M34.8001 78.7751C37.3818 77.0389 39.9683 75.3018 42.5597 73.5639C64.4741 58.8877 86.4092 44.2293 108.365 29.5884C111.703 27.3857 115.254 25.5275 118.963 24.0421C123.469 22.2214 127.575 23.3186 129.801 26.4029C132.366 29.9478 131.512 33.5529 129.561 36.9506C128.28 39.2054 126.572 41.2141 123.952 44.8603C127.834 43.0203 130.053 41.87 132.349 40.903C137.165 38.8629 141.496 39.5526 144.068 42.6441C146.851 45.984 146.626 50.6647 142.895 55.0535C139.62 58.9119 135.951 62.4326 132.316 65.9558C123.748 74.2994 115.074 82.5442 106.952 91.7367C108.675 90.8348 110.46 90.0367 112.103 89.007C123.402 81.9414 134.629 74.7552 145.973 67.7619C148.9 65.9606 152.051 64.3594 155.304 63.308C159.558 61.9334 163.731 63.5949 165.91 66.8335C168.187 70.2216 167.999 74.2391 165.19 78.0059C164.045 79.4829 162.759 80.8438 161.351 82.0692C147.502 94.6667 132.469 105.699 116.549 115.509C114.848 116.56 112.866 117.151 110.551 118.162C110.182 115.926 109.942 114.453 109.68 112.856C108.915 113.064 108.084 113.124 107.422 113.486C99.5043 117.87 91.6847 122.476 83.6443 126.631C80.1436 128.439 76.2782 129.934 72.4128 130.554C63.4607 131.987 57.5126 124.108 61.2245 115.801C62.9208 112.012 65.5626 108.648 67.0646 104.334C61.8627 107.862 56.704 111.455 51.4446 114.889C48.5653 116.777 45.6285 118.719 42.4709 120.045C38.5167 121.709 34.5697 120.484 32.4847 117.443C30.3036 114.257 30.1573 110.869 32.4247 107.715C34.1113 105.317 36.0289 103.092 38.1496 101.072C46.154 93.6249 54.2927 86.3206 62.369 78.9536C64.2309 77.2655 66.0545 75.5076 67.0238 72.6235C64.682 74.2295 62.3762 75.8741 60.0056 77.4319C47.5288 85.6309 35.1216 93.9191 22.5176 101.908C18.9641 104.165 15.0051 106.189 10.9574 107.141C3.74004 108.841 -1.07553 103.297 1.25428 96.2245C2.2952 93.1984 3.89386 90.3965 5.96667 87.9652C11.2957 81.6472 16.524 75.1338 22.58 69.573C44.5744 49.3954 66.7655 29.4301 89.1533 9.67697C92.9012 6.34191 97.3112 3.67724 101.645 1.11868C104.632 -0.639279 107.924 -0.446362 110.282 2.56556C112.593 5.51719 112.137 8.59422 109.836 11.3602C107.962 13.6028 106.062 15.8961 103.838 17.7674C86.1109 32.7185 68.2859 47.5394 50.5256 62.4447C44.8343 67.2218 39.2485 72.1315 33.6172 76.981L34.8025 78.7848" fill="white"/>
</svg>
