<svg width="123" height="142" viewBox="0 0 123 142" fill="none" xmlns="http://www.w3.org/2000/svg">
<path d="M-21.2552 85.5703C-18.4507 83.6843 -15.6411 81.7974 -12.8262 79.9096C10.9785 63.9675 34.8059 48.0445 58.6558 32.1408C62.2816 29.748 66.1386 27.7295 70.168 26.116C75.0628 24.1383 79.5222 25.3301 81.9409 28.6804C84.7271 32.5311 83.7993 36.4472 81.6803 40.138C80.2885 42.5873 78.4328 44.7693 75.5866 48.7299C79.8037 46.7313 82.2146 45.4818 84.7089 44.4314C89.9398 42.2153 94.6443 42.9645 97.4384 46.3226C100.462 49.9506 100.217 55.035 96.1638 59.8025C92.6062 63.9937 88.621 67.8181 84.6724 71.6452C75.3651 80.7086 65.9431 89.6646 57.1206 99.65C58.992 98.6703 60.9311 97.8033 62.7165 96.6848C74.9898 89.0097 87.1849 81.2036 99.5078 73.6071C102.688 71.6504 106.11 69.9111 109.644 68.769C114.265 67.2759 118.797 69.0807 121.164 72.5986C123.637 76.279 123.434 80.6431 120.382 84.7347C119.139 86.3392 117.742 87.8175 116.212 89.1485C101.168 102.833 84.8392 114.817 67.546 125.473C65.6981 126.615 63.5453 127.257 61.0302 128.354C60.6288 125.926 60.3681 124.326 60.084 122.591C59.2526 122.817 58.3508 122.882 57.6315 123.275C49.0305 128.037 40.5364 133.041 31.8025 137.554C27.9998 139.519 23.8009 141.143 19.6021 141.816C9.87778 143.372 3.41661 134.814 7.44865 125.79C9.29134 121.675 12.1609 118.02 13.7925 113.334C8.14195 117.166 2.53828 121.07 -3.17486 124.8C-6.30249 126.851 -9.49267 128.959 -12.9226 130.4C-17.2179 132.208 -21.5054 130.877 -23.7703 127.574C-26.1395 124.113 -26.2985 120.433 -23.8355 117.007C-22.0033 114.402 -19.9203 111.985 -17.6167 109.79C-8.92188 101.701 -0.0811119 93.7667 8.69189 85.7642C10.7144 83.9305 12.6953 82.0209 13.7482 78.888C11.2044 80.6326 8.6997 82.4191 6.12462 84.1113C-7.42844 93.0175 -20.9059 102.021 -34.5971 110.699C-38.4571 113.151 -42.7576 115.349 -47.1545 116.383C-54.9945 118.23 -60.2254 112.208 -57.6946 104.525C-56.5639 101.238 -54.8274 98.1942 -52.5758 95.5532C-46.787 88.6901 -41.1078 81.6149 -34.5293 75.5744C-10.6377 53.6563 13.4676 31.9688 37.7867 10.5117C41.8578 6.88897 46.6483 3.99445 51.3554 1.21518C54.6003 -0.694424 58.1762 -0.484865 60.7382 2.78687C63.2482 5.99311 62.753 9.33557 60.2534 12.3401C58.2179 14.7762 56.1536 17.2674 53.7376 19.3001C34.4818 35.5409 15.1192 51.6402 -4.1731 67.8312C-10.3554 73.0204 -16.423 78.3536 -22.5401 83.6214L-21.2526 85.5808" fill="white"/>
</svg>
