<svg width="66" height="66" viewBox="0 0 66 66" fill="none" xmlns="http://www.w3.org/2000/svg">
<circle cx="33" cy="33" r="33" transform="rotate(-180 33 33)" fill="#F7F7F7"/>
<circle cx="33" cy="33" r="32.5" transform="rotate(-180 33 33)" stroke="black" stroke-opacity="0.5"/>
<path d="M25.0001 33.5267C24.9956 33.1562 25.1374 32.7987 25.395 32.5311L33.5615 24.4204C33.6933 24.288 33.8499 24.1828 34.0226 24.1106C34.1952 24.0385 34.3804 24.0009 34.5676 24C34.7548 23.9991 34.9404 24.035 35.1137 24.1055C35.287 24.176 35.4446 24.2798 35.5777 24.4109C35.7107 24.5421 35.8164 24.6981 35.8889 24.8699C35.9613 25.0417 35.9991 25.2261 36 25.4125C36.0009 25.5989 35.9649 25.7836 35.8941 25.9561C35.8232 26.1286 35.719 26.2856 35.5872 26.418L28.4208 33.5267L35.5872 40.6355C35.8324 40.9044 35.9642 41.257 35.9554 41.6201C35.9466 41.9832 35.7978 42.329 35.5398 42.5858C35.2818 42.8426 34.9344 42.9908 34.5697 42.9996C34.2049 43.0084 33.8508 42.8771 33.5806 42.633L25.395 34.5223C25.1374 34.2548 24.9956 33.8973 25.0001 33.5267Z" fill="#919191"/>
</svg>
