<svg width="366" height="19" viewBox="0 0 366 19" fill="none" xmlns="http://www.w3.org/2000/svg">
<path d="M27.9587 9.893C28.3336 8.83914 27.6442 7.73737 26.5861 7.56658V7.54784L28.9084 6.5398L30.3455 3.4511C30.3559 3.42819 30.3663 3.40528 30.3746 3.38237C30.5933 2.81586 30.6225 2.28268 30.4642 1.74742C30.1455 0.670644 29.2395 0 28.1024 0C28.1024 0 9.05782 0.00624859 0 0.0166623V3.04496L17.9428 2.94499L13.2046 15.3394C12.7068 16.6848 13.7877 18.1885 15.254 18.1885C17.1138 18.1885 19.0279 18.1906 20.9253 18.1927L20.9211 18.2031H24.9116L27.9566 9.89509L27.9587 9.893ZM23.6099 10.7074C23.3933 11.2822 23.1788 11.8591 22.9643 12.4339L21.9604 15.2665L17.5304 15.2623L19.2924 10.4678L21.1085 10.5053L21.1148 10.5199H21.8375L23.6203 10.5574C23.6411 10.5866 23.6349 10.6345 23.6078 10.7074H23.6099ZM24.5555 7.54367L20.4879 7.54784L22.1062 2.99081H26.3112L24.5555 7.54159V7.54367Z" fill="white"/>
<path d="M62.9777 9.4724C62.9464 9.55571 62.9256 9.61611 62.9027 9.67443C62.2195 11.4718 61.5281 13.2671 60.8595 15.0687C60.7491 15.3686 60.67 15.7019 60.6742 16.0184C60.6971 17.2952 61.6989 18.2491 62.9818 18.2511C64.8063 18.2532 66.6329 18.2553 68.4594 18.247C68.7177 18.247 68.9822 18.2157 69.2321 18.1532C70.2693 17.8908 70.9171 17.2098 71.2899 16.2226C72.1146 14.0294 73.0352 11.6551 73.8641 9.46407L78.4816 9.45157L366 9.52238V6.55448L76.6092 6.47534V6.517H59.0746C57.3085 9.11209 55.4069 11.8842 53.6366 14.4772C53.6012 14.5293 53.5616 14.5793 53.5241 14.6313C53.5158 14.6272 53.5054 14.623 53.497 14.6188C54.1469 11.9238 54.7967 9.22872 55.4507 6.52324H51.6309L49.8127 15.0937L49.771 15.2999C48.8463 15.2895 47.7299 15.2957 46.8052 15.2957C46.749 15.2957 46.6927 15.2916 46.6136 15.2874C47.7216 12.357 48.8234 9.44532 49.9335 6.51491H32.6093C31.2472 6.51491 30.2287 7.21888 29.7413 8.49351L26.1299 18.2511H30.0996L32.7197 11.3656C32.9363 10.7949 33.1529 10.2243 33.3674 9.65152C33.4195 9.51406 33.4799 9.46407 33.6319 9.46615H34.2609C34.2609 9.46615 34.263 9.46615 34.2651 9.46615C34.2651 9.46615 34.2692 9.46615 34.2713 9.46615H36.0021L36.2707 9.23913L38.9595 7.13974C38.9908 7.11474 39.1032 7.01477 39.1949 6.93562L36.0166 14.548C36.0166 14.548 35.5334 15.7477 35.6334 16.1788C35.8375 17.4805 36.7393 18.2532 38.0265 18.2532C38.6138 18.2532 39.2011 18.2574 39.7864 18.249C39.8822 18.249 39.9947 18.2053 40.0696 18.1449C40.8194 17.5263 41.5609 16.8994 42.3065 16.2746C42.344 16.2434 42.3877 16.2142 42.4377 16.1767C42.4502 16.2246 42.4606 16.2517 42.4648 16.2809C42.5814 17.3181 43.4957 18.2886 44.8391 18.2553C45.4139 18.2407 45.9888 18.2574 46.5636 18.249L49.5336 15.9289C49.5794 15.8893 49.6294 15.8539 49.6898 15.806C49.696 15.8539 49.7002 15.8726 49.6981 15.8893C49.6377 17.1056 50.6145 18.2865 52.0745 18.2553C52.8451 18.2386 53.6158 18.247 54.3864 18.2553H54.5946C56.6316 15.429 58.8872 12.2987 60.9262 9.47448L62.9777 9.47032V9.4724ZM69.784 9.4724L68.6802 12.3841C68.3324 13.3005 67.9325 14.3752 67.5888 15.2936L64.8584 15.2978C64.8771 15.2374 64.8875 15.1874 64.9063 15.1416C65.6019 13.3046 66.3684 11.3052 67.064 9.46823L69.784 9.4724ZM39.8093 15.2978C39.9238 14.9896 40.0301 14.7042 40.1405 14.4168C40.7424 12.8298 41.4109 11.0657 42.0066 9.47656L44.735 9.4724C44.7141 9.5453 44.6996 9.60153 44.6787 9.6536C43.9873 11.4781 43.225 13.4733 42.5377 15.2999H39.8114L39.8093 15.2978Z" fill="white"/>
</svg>
