<svg width="367" height="19" viewBox="0 0 367 19" fill="none" xmlns="http://www.w3.org/2000/svg">
<path d="M28.6208 9.893C28.9957 8.83914 28.3063 7.73737 27.2482 7.56658V7.54784L29.5705 6.5398L31.0076 3.4511C31.018 3.42819 31.0284 3.40528 31.0367 3.38237C31.2554 2.81586 31.2846 2.28268 31.1263 1.74742C30.8076 0.670644 29.9017 0 28.7645 0C28.7645 0 9.71993 0.00624859 0.662109 0.0166623V3.04496L18.6049 2.94499L13.8667 15.3394C13.3689 16.6848 14.4498 18.1885 15.9161 18.1885C17.776 18.1885 19.69 18.1906 21.5874 18.1927L21.5832 18.2031H25.5737L28.6187 9.89509L28.6208 9.893ZM24.272 10.7074C24.0554 11.2822 23.8409 11.8591 23.6264 12.4339L22.6225 15.2665L18.1925 15.2623L19.9545 10.4678L21.7706 10.5053L21.7769 10.5199H22.4996L24.2824 10.5574C24.3033 10.5866 24.297 10.6345 24.2699 10.7074H24.272ZM25.2176 7.54367L21.15 7.54784L22.7683 2.99081H26.9733L25.2176 7.54159V7.54367Z" fill="black"/>
<path d="M63.6398 9.47216C63.6085 9.55547 63.5877 9.61587 63.5648 9.67418C62.8817 11.4716 62.1902 13.2669 61.5216 15.0685C61.4112 15.3684 61.3321 15.7016 61.3363 16.0182C61.3592 17.2949 62.361 18.2488 63.6439 18.2509C65.4684 18.253 67.295 18.2551 69.1215 18.2467C69.3798 18.2467 69.6443 18.2155 69.8942 18.153C70.9314 17.8906 71.5792 17.2095 71.952 16.2223C72.7767 14.0292 73.6973 11.6549 74.5262 9.46382L79.1437 9.45133L366.662 9.52214V6.55424L77.2713 6.4751V6.51675H59.7367C57.9706 9.11184 56.069 11.884 54.2987 14.477C54.2633 14.529 54.2237 14.579 54.1862 14.6311C54.1779 14.6269 54.1675 14.6228 54.1592 14.6186C54.809 11.9235 55.4588 9.22847 56.1128 6.523H52.293L50.4748 15.0935L50.4331 15.2997C49.5084 15.2892 48.3921 15.2955 47.4673 15.2955C47.4111 15.2955 47.3549 15.2913 47.2757 15.2872C48.3837 12.3567 49.4855 9.44508 50.5956 6.51467H33.2714C31.9093 6.51467 30.8908 7.21864 30.4035 8.49327L26.792 18.2509H30.7617L33.3818 11.3654C33.5984 10.7947 33.815 10.224 34.0295 9.65127C34.0816 9.51381 34.142 9.46383 34.294 9.46591H34.923C34.923 9.46591 34.9251 9.46591 34.9272 9.46591C34.9272 9.46591 34.9313 9.46591 34.9334 9.46591H36.6642L36.9328 9.23889L39.6216 7.13949C39.6529 7.1145 39.7654 7.01452 39.857 6.93538L36.6787 14.5478C36.6787 14.5478 36.1955 15.7474 36.2955 16.1786C36.4996 17.4803 37.4015 18.253 38.6886 18.253C39.2759 18.253 39.8632 18.2571 40.4485 18.2488C40.5443 18.2488 40.6568 18.2051 40.7317 18.1447C41.4815 17.5261 42.223 16.8992 42.9686 16.2744C43.0061 16.2431 43.0498 16.214 43.0998 16.1765C43.1123 16.2244 43.1227 16.2515 43.1269 16.2806C43.2435 17.3178 44.1579 18.2884 45.5012 18.2551C46.0761 18.2405 46.6509 18.2571 47.2257 18.2488L50.1957 15.9286C50.2415 15.8891 50.2915 15.8537 50.3519 15.8058C50.3582 15.8537 50.3623 15.8724 50.3602 15.8891C50.2998 17.1054 51.2766 18.2863 52.7366 18.2551C53.5073 18.2384 54.2779 18.2467 55.0485 18.2551H55.2568C57.2937 15.4288 59.5493 12.2984 61.5883 9.47424L63.6398 9.47007V9.47216ZM70.4462 9.47216L69.3423 12.3838C68.9945 13.3002 68.5946 14.3749 68.2509 15.2934L65.5205 15.2976C65.5392 15.2372 65.5496 15.1872 65.5684 15.1414C66.264 13.3044 67.0305 11.305 67.7261 9.46799L70.4462 9.47216ZM40.4714 15.2976C40.586 14.9893 40.6922 14.704 40.8026 14.4166C41.4045 12.8295 42.073 11.0654 42.6687 9.47632L45.3971 9.47216C45.3763 9.54505 45.3617 9.60128 45.3408 9.65335C44.6494 11.4778 43.8871 13.4731 43.1998 15.2997H40.4735L40.4714 15.2976Z" fill="black"/>
</svg>
