<svg width="1512" height="29" viewBox="0 0 1512 29" fill="none" xmlns="http://www.w3.org/2000/svg">
<path d="M95.0881 15.2607C95.6726 13.635 94.5978 11.9355 92.9483 11.672V11.6431L96.5688 10.0881L98.8092 5.32358C98.8255 5.28824 98.8417 5.2529 98.8547 5.21756C99.1956 4.34368 99.2411 3.52121 98.9943 2.69553C98.4975 1.03452 97.0851 0 95.3122 0C95.3122 0 -1.87866 0.00963893 -16 0.0257028V4.69709L79.4732 4.54287L72.0862 23.6621C71.3101 25.7376 72.9953 28.0572 75.2812 28.0572C78.1808 28.0572 81.1649 28.0604 84.1229 28.0636L84.1164 28.0797H90.3377L95.0849 15.2639L95.0881 15.2607ZM88.3083 16.5169C87.9706 17.4036 87.6362 18.2936 87.3018 19.1803L85.7367 23.5497L78.8302 23.5432L81.5772 16.1474L84.4087 16.2053L84.4184 16.2278H85.5451L88.3246 16.2856C88.357 16.3306 88.3473 16.4045 88.3051 16.5169H88.3083ZM89.7825 11.6367L83.441 11.6431L85.964 4.61355H92.5197L89.7825 11.6335V11.6367Z" fill="black"/>
<path d="M150.177 14.7602C150.127 14.8866 150.095 14.9782 150.059 15.0667C148.987 17.7929 147.901 20.516 146.852 23.2486C146.679 23.7035 146.555 24.2089 146.561 24.6891C146.597 26.6256 148.169 28.0725 150.183 28.0756C153.047 28.0788 155.913 28.0819 158.78 28.0693C159.186 28.0693 159.601 28.0219 159.993 27.9271C161.621 27.5291 162.638 26.4961 163.223 24.9987C164.517 21.6722 165.962 18.0709 167.263 14.7476L174.51 14.7286L1527 14.8324V10.3307L171.571 10.2144V10.2775H144.051C141.279 14.2137 138.294 18.4184 135.516 22.3514C135.46 22.4304 135.398 22.5062 135.339 22.5852C135.326 22.5789 135.31 22.5725 135.297 22.5662C136.316 18.4784 137.336 14.3906 138.363 10.287H132.368L129.514 23.2865L129.448 23.5992C127.997 23.5834 126.245 23.5929 124.794 23.5929C124.705 23.5929 124.617 23.5866 124.493 23.5803C126.232 19.1355 127.961 14.7192 129.703 10.2744H102.513C100.375 10.2744 98.7764 11.3421 98.0115 13.2755L92.3433 28.0756H98.5738L102.686 17.6318C103.026 16.7662 103.366 15.9007 103.703 15.0319C103.784 14.8234 103.879 14.7476 104.118 14.7508H105.105C105.105 14.7508 105.108 14.7508 105.112 14.7508C105.112 14.7508 105.118 14.7508 105.121 14.7508H107.838L108.26 14.4064L112.48 11.2221C112.529 11.1842 112.705 11.0325 112.849 10.9125L107.861 22.4588C107.861 22.4588 107.102 24.2784 107.259 24.9324C107.58 26.9068 108.995 28.0788 111.015 28.0788C111.937 28.0788 112.859 28.0851 113.777 28.0725C113.928 28.0725 114.104 28.0061 114.222 27.9145C115.399 26.9763 116.562 26.0254 117.733 25.0777C117.792 25.0303 117.86 24.9861 117.939 24.9292C117.958 25.0019 117.975 25.0429 117.981 25.0872C118.164 26.6604 119.599 28.1325 121.708 28.0819C122.61 28.0598 123.512 28.0851 124.414 28.0725L129.076 24.5533C129.148 24.4932 129.226 24.4395 129.321 24.3669C129.331 24.4395 129.337 24.468 129.334 24.4932C129.239 26.3381 130.772 28.1293 133.064 28.0819C134.273 28.0567 135.483 28.0693 136.692 28.0819H137.019C140.216 23.7951 143.756 19.0471 146.957 14.7634L150.177 14.7571V14.7602ZM160.859 14.7602L159.127 19.1766C158.581 20.5666 157.953 22.1966 157.414 23.5898L153.128 23.5961C153.158 23.5045 153.174 23.4287 153.204 23.3592C154.295 20.5729 155.498 17.5402 156.59 14.7539L160.859 14.7602ZM113.813 23.5961C113.993 23.1285 114.16 22.6957 114.333 22.2598C115.278 19.8526 116.327 17.1769 117.262 14.7666L121.544 14.7602C121.512 14.8708 121.489 14.9561 121.456 15.0351C120.371 17.8024 119.174 20.8287 118.096 23.5992H113.817L113.813 23.5961Z" fill="black"/>
</svg>
