<svg width="17" height="17" viewBox="0 0 17 17" fill="none" xmlns="http://www.w3.org/2000/svg">
<path d="M14.7573 0.216309H2.56687C1.51544 0.216309 0.662109 1.06964 0.662109 2.12107V14.3115C0.662109 15.363 1.51544 16.2163 2.56687 16.2163H14.7573C15.8088 16.2163 16.6621 15.363 16.6621 14.3115V2.12107C16.6621 1.06964 15.8088 0.216309 14.7573 0.216309ZM13.2335 5.93059H12.4716C11.6564 5.93059 11.3288 6.12107 11.3288 6.6925V7.83536H13.2335L12.8526 9.74012H11.3288V15.4544H9.42401V9.74012H7.9002V7.83536H9.42401V6.6925C9.42401 5.16869 10.1859 4.02583 11.7097 4.02583C12.8145 4.02583 13.2335 4.40679 13.2335 4.40679V5.93059Z" fill="black"/>
</svg>
