<svg width="17" height="17" viewBox="0 0 17 17" fill="none" xmlns="http://www.w3.org/2000/svg">
<path d="M12.7096 0.216309H4.61461C3.56665 0.217301 2.56189 0.634043 1.82087 1.37507C1.07984 2.11609 0.663102 3.12085 0.662109 4.16881V12.2638C0.663102 13.3118 1.07984 14.3165 1.82087 15.0576C2.56189 15.7986 3.56665 16.2153 4.61461 16.2163H12.7096C13.7575 16.2149 14.762 15.798 15.5029 15.0571C16.2439 14.3162 16.6607 13.3117 16.6621 12.2638V4.16881C16.6607 3.12097 16.2439 2.11644 15.5029 1.3755C14.762 0.634566 13.7575 0.217698 12.7096 0.216309ZM12.6271 5.26631C12.4261 5.26606 12.2297 5.20622 12.0627 5.09435C11.8957 4.98247 11.7657 4.8236 11.689 4.63781C11.6123 4.45202 11.5924 4.24766 11.6319 4.05057C11.6713 3.85349 11.7683 3.67253 11.9106 3.53058C12.0529 3.38863 12.2341 3.29206 12.4313 3.25309C12.6285 3.21412 12.8328 3.2345 13.0184 3.31165C13.204 3.38879 13.3626 3.51924 13.474 3.6865C13.5855 3.85376 13.6449 4.05031 13.6446 4.25131C13.6444 4.38476 13.618 4.51688 13.5668 4.64012C13.5156 4.76335 13.4406 4.87529 13.3461 4.96954C13.2516 5.06379 13.1395 5.13851 13.0161 5.18943C12.8927 5.24035 12.7606 5.26647 12.6271 5.26631ZM8.66211 4.40631C9.41566 4.40631 10.1523 4.62976 10.7788 5.04841C11.4054 5.46706 11.8937 6.0621 12.1821 6.75828C12.4705 7.45447 12.5459 8.22053 12.3989 8.9596C12.2519 9.69867 11.889 10.3775 11.3562 10.9104C10.8233 11.4432 10.1445 11.8061 9.4054 11.9531C8.66634 12.1001 7.90027 12.0247 7.20409 11.7363C6.5079 11.4479 5.91286 10.9596 5.49421 10.333C5.07556 9.70648 4.85211 8.96986 4.85211 8.21631C4.85356 7.20628 5.25544 6.23804 5.96964 5.52384C6.68384 4.80964 7.65208 4.40776 8.66211 4.40631Z" fill="black"/>
<path d="M8.66164 10.5088C9.11505 10.5088 9.55828 10.3744 9.93528 10.1225C10.3123 9.87057 10.6061 9.51253 10.7796 9.09363C10.9531 8.67473 10.9985 8.21379 10.9101 7.76908C10.8216 7.32438 10.6033 6.9159 10.2827 6.59529C9.96207 6.27467 9.55359 6.05634 9.10888 5.96788C8.66418 5.87942 8.20324 5.92482 7.78434 6.09834C7.36544 6.27185 7.0074 6.56568 6.7555 6.94268C6.50359 7.31968 6.36914 7.76292 6.36914 8.21633C6.3698 8.82413 6.61154 9.40686 7.04133 9.83664C7.47111 10.2664 8.05383 10.5082 8.66164 10.5088Z" fill="black"/>
</svg>
