<svg width="107" height="79" viewBox="0 0 107 79" fill="none" xmlns="http://www.w3.org/2000/svg">
<rect width="106" height="79" fill="white"/>
<path d="M28.1521 41.3166C28.7345 39.6793 27.6635 37.9676 26.0197 37.7023V37.6732L29.6276 36.1071L31.8602 31.3086C31.8764 31.273 31.8925 31.2374 31.9055 31.2018C32.2452 30.3217 32.2905 29.4934 32.0446 28.6618C31.5496 26.9889 30.142 25.947 28.3753 25.947C28.3753 25.947 14.0721 25.9567 0 25.9729V30.6776L12.5916 30.5223L5.23038 49.7779C4.45704 51.8682 6.13637 54.2044 8.41431 54.2044C11.3038 54.2044 14.2774 54.2076 17.2251 54.2109L17.2186 54.227H23.4182L28.1488 41.3198L28.1521 41.3166ZM21.3959 42.5818C21.0594 43.4748 20.7261 44.3711 20.3929 45.2642L18.8333 49.6647L11.9509 49.6582L14.6883 42.2097L17.5099 42.2679L17.5196 42.2905H18.6423L21.4121 42.3488C21.4445 42.3941 21.4348 42.4685 21.3927 42.5818H21.3959ZM22.8649 37.6667L16.5456 37.6732L19.0598 30.5935H25.5926L22.8649 37.6635V37.6667Z" fill="black"/>
<path d="M82.557 40.6628C82.5085 40.7922 82.4761 40.886 82.4405 40.9766C81.3792 43.769 80.305 46.5582 79.2663 49.3571C79.0948 49.823 78.9719 50.3407 78.9783 50.8326C79.0139 52.816 80.5703 54.298 82.5635 54.3012C85.398 54.3045 88.2357 54.3077 91.0734 54.2948C91.4746 54.2948 91.8856 54.2462 92.2738 54.1492C93.8852 53.7415 94.8915 52.6834 95.4707 51.1497C96.752 47.7425 98.1822 44.0538 99.47 40.6498L106.644 40.6304V40.7404V36.1295L103.735 36.0066V36.0713H76.4933C73.7495 40.103 70.7953 44.4097 68.0449 48.4381C67.9899 48.519 67.9284 48.5967 67.8702 48.6776C67.8572 48.6711 67.8411 48.6646 67.8281 48.6582C68.8377 44.4712 69.8472 40.2842 70.8632 36.081H64.9289L62.1042 49.3959L62.0395 49.7163C60.6028 49.7001 58.8685 49.7098 57.4318 49.7098C57.3445 49.7098 57.2571 49.7033 57.1341 49.6968C58.8555 45.1442 60.5672 40.6207 62.2918 36.0681H35.3773C33.2611 36.0681 31.6789 37.1617 30.9217 39.142L25.311 54.3012H31.4783L35.5488 43.604C35.8853 42.7174 36.2218 41.8309 36.5551 40.941C36.636 40.7275 36.7298 40.6498 36.966 40.6531H37.9432C37.9432 40.6531 37.9464 40.6531 37.9497 40.6531C37.9497 40.6531 37.9561 40.6531 37.9594 40.6531H40.6482L41.0657 40.3004L45.2429 37.0388C45.2915 37 45.4662 36.8446 45.6086 36.7217L40.6709 48.5482C40.6709 48.5482 39.9202 50.4119 40.0755 51.0817C40.3926 53.104 41.7937 54.3045 43.7933 54.3045C44.7058 54.3045 45.6183 54.3109 46.5275 54.298C46.6764 54.298 46.8511 54.23 46.9676 54.1362C48.1324 53.1752 49.2843 52.2013 50.4427 51.2306C50.501 51.182 50.5689 51.1367 50.6466 51.0785C50.666 51.1529 50.6822 51.195 50.6886 51.2403C50.8698 52.8516 52.2903 54.3595 54.3773 54.3077C55.2704 54.2851 56.1634 54.3109 57.0565 54.298L61.6706 50.6934C61.7418 50.632 61.8194 50.5769 61.9133 50.5025C61.923 50.5769 61.9294 50.6061 61.9262 50.632C61.8324 52.5216 63.3499 54.3562 65.6181 54.3077C66.8154 54.2818 68.0126 54.2948 69.2098 54.3077H69.5333C72.6978 49.9169 76.2021 45.0536 79.3699 40.666L82.557 40.6595V40.6628ZM93.1313 40.6628L91.4164 45.1863C90.876 46.61 90.2548 48.2796 89.7209 49.7065L85.4789 49.713C85.508 49.6192 85.5242 49.5415 85.5533 49.4703C86.634 46.6165 87.8248 43.5102 88.9055 40.6563L93.1313 40.6628ZM46.5631 49.713C46.7411 49.2341 46.9061 48.7908 47.0776 48.3443C48.0127 45.8787 49.0514 43.1381 49.9768 40.6692L54.2155 40.6628C54.1832 40.776 54.1605 40.8634 54.1282 40.9443C53.0539 43.7787 51.8697 46.8785 50.8019 49.7163H46.5663L46.5631 49.713Z" fill="black"/>
</svg>
