<svg width="1512" height="29" viewBox="0 0 1512 29" fill="none" xmlns="http://www.w3.org/2000/svg">
<path d="M111.088 15.2607C111.673 13.635 110.598 11.9355 108.948 11.672V11.6431L112.569 10.0881L114.809 5.32358C114.825 5.28824 114.842 5.2529 114.855 5.21756C115.196 4.34368 115.241 3.52121 114.994 2.69553C114.498 1.03452 113.085 0 111.312 0C111.312 0 14.1213 0.00963893 0 0.0257028V4.69709L95.4732 4.54287L88.0862 23.6621C87.3101 25.7376 88.9953 28.0572 91.2812 28.0572C94.1808 28.0572 97.1649 28.0604 100.123 28.0636L100.116 28.0797H106.338L111.085 15.2639L111.088 15.2607ZM104.308 16.5169C103.971 17.4036 103.636 18.2936 103.302 19.1803L101.737 23.5497L94.8302 23.5432L97.5772 16.1474L100.409 16.2053L100.418 16.2278H101.545L104.325 16.2856C104.357 16.3306 104.347 16.4045 104.305 16.5169H104.308ZM105.782 11.6367L99.441 11.6431L101.964 4.61355H108.52L105.782 11.6335V11.6367Z" fill="white"/>
<path d="M166.176 14.7605C166.127 14.8868 166.095 14.9785 166.059 15.0669C164.987 17.7932 163.901 20.5162 162.852 23.2488C162.679 23.7037 162.554 24.2092 162.561 24.6894C162.597 26.6259 164.169 28.0727 166.183 28.0759C169.047 28.079 171.913 28.0822 174.78 28.0695C175.185 28.0695 175.601 28.0222 175.993 27.9274C177.621 27.5293 178.637 26.4963 179.223 24.9989C180.517 21.6725 181.962 18.0712 183.263 14.7478L190.51 14.7289L1543 14.8326V10.331L187.571 10.2146V10.2778H160.051C157.278 14.214 154.294 18.4186 151.515 22.3517C151.46 22.4306 151.398 22.5064 151.339 22.5854C151.326 22.5791 151.309 22.5728 151.296 22.5665C152.316 18.4786 153.336 14.3909 154.363 10.2873H148.367L145.514 23.2867L145.448 23.5995C143.997 23.5837 142.245 23.5932 140.793 23.5932C140.705 23.5932 140.617 23.5868 140.493 23.5805C142.232 19.1357 143.961 14.7194 145.703 10.2746H118.513C116.375 10.2746 114.776 11.3424 114.011 13.2757L108.343 28.0759H114.574L118.686 17.6321C119.026 16.7665 119.366 15.9009 119.703 15.0322C119.784 14.8237 119.879 14.7478 120.118 14.751H121.105C121.105 14.751 121.108 14.751 121.111 14.751C121.111 14.751 121.118 14.751 121.121 14.751H123.838L124.259 14.4067L128.48 11.2223C128.529 11.1844 128.705 11.0328 128.849 10.9127L123.861 22.4591C123.861 22.4591 123.102 24.2787 123.259 24.9326C123.579 26.907 124.995 28.079 127.015 28.079C127.937 28.079 128.859 28.0853 129.777 28.0727C129.928 28.0727 130.104 28.0064 130.222 27.9147C131.399 26.9765 132.562 26.0256 133.733 25.0779C133.791 25.0305 133.86 24.9863 133.939 24.9294C133.958 25.0021 133.975 25.0432 133.981 25.0874C134.164 26.6606 135.599 28.1327 137.708 28.0822C138.61 28.0601 139.512 28.0853 140.414 28.0727L145.076 24.5535C145.148 24.4935 145.226 24.4398 145.321 24.3671C145.331 24.4398 145.337 24.4682 145.334 24.4935C145.239 26.3384 146.772 28.1296 149.064 28.0822C150.273 28.0569 151.483 28.0695 152.692 28.0822H153.019C156.216 23.7953 159.756 19.0473 162.957 14.7636L166.176 14.7573V14.7605ZM176.859 14.7605L175.127 19.1768C174.581 20.5668 173.953 22.1969 173.414 23.59L169.128 23.5963C169.158 23.5047 169.174 23.4289 169.203 23.3594C170.295 20.5731 171.498 17.5405 172.59 14.7542L176.859 14.7605ZM129.813 23.5963C129.993 23.1288 130.16 22.696 130.333 22.26C131.278 19.8528 132.327 17.1772 133.262 14.7668L137.544 14.7605C137.511 14.8711 137.489 14.9563 137.456 15.0353C136.371 17.8027 135.174 20.829 134.095 23.5995H129.817L129.813 23.5963Z" fill="white"/>
</svg>
